<?xml version="1.0" encoding="utf-8"?>
<!-- Generator: Adobe Illustrator 19.2.1, SVG Export Plug-In . SVG Version: 6.00 Build 0)  -->
<svg version="1.1" id="Layer_1" xmlns="http://www.w3.org/2000/svg" xmlns:xlink="http://www.w3.org/1999/xlink" x="0px" y="0px"
	 viewBox="0 0 371.3 75.8" style="enable-background:new 0 0 371.3 75.8;" xml:space="preserve">
<style type="text/css">
	.st0{fill:#5D5E5E;}
	.st1{fill:#283A90;}
	.st2{fill:#3AA4C0;}
</style>
<g>
	<path class="st0" d="M66.9,75.8V20.3h12.7c6.5,0,11.6,1.6,15.2,4.9c3.6,3.3,5.5,7.8,5.5,13.6c0,5.5-1.7,10.1-5.1,13.6
		c-3.4,3.5-7.8,5.3-13.1,5.3c-2.3,0-4.9-0.5-7.8-1.6v19.7H66.9z M79.5,27.1h-5.1v22.6c2.2,1.1,4.6,1.7,7,1.7c3.4,0,6.2-1.2,8.4-3.6
		c2.2-2.4,3.3-5.4,3.3-9.2c0-2.4-0.5-4.5-1.5-6.4c-1-1.8-2.4-3.2-4.2-4C85.5,27.5,82.9,27.1,79.5,27.1z"/>
	<path class="st0" d="M108.2,1.2h7.3v23.9c3-3.7,6.8-5.6,11.3-5.6c2.5,0,4.7,0.6,6.6,1.8c1.9,1.2,3.4,2.9,4.3,5.1s1.4,5.4,1.4,9.6
		v21h-7.3V34.3c0-2.7-0.7-4.9-2-6.5c-1.3-1.6-3.1-2.5-5.2-2.5c-1.6,0-3.1,0.4-4.5,1.2c-1.4,0.8-3,2.2-4.7,4.1v26.4h-7.3V1.2z"/>
	<path class="st0" d="M169,20.3h8.2l-26.1,55.5H143l12.5-26.7l-14.2-28.9h8.3l9.9,20.8L169,20.3z"/>
	<path class="st0" d="M182.4,1.2h7.3v55.9h-7.3V1.2z"/>
	<path class="st0" d="M217.8,20.2c5.6,0,10.2,1.8,14,5.4c3.7,3.6,5.6,8.2,5.6,13.6c0,5.3-1.9,9.7-5.6,13.2
		c-3.8,3.5-8.5,5.3-14.2,5.3c-5.5,0-10.1-1.8-13.8-5.3c-3.7-3.6-5.6-8-5.6-13.3c0-5.4,1.9-9.9,5.6-13.5
		C207.5,22,212.2,20.2,217.8,20.2z M217.4,26.7c-3.5,0-6.4,1.1-8.6,3.4c-2.2,2.3-3.4,5.2-3.4,8.8c0,3.5,1.1,6.4,3.4,8.6
		c2.3,2.2,5.2,3.3,8.8,3.3c3.6,0,6.5-1.1,8.8-3.4c2.3-2.3,3.4-5.1,3.4-8.7c0-3.5-1.2-6.4-3.6-8.7C224,27.9,221,26.7,217.4,26.7z"/>
	<path class="st0" d="M250.2,49.1v8h-5.3v-8H250.2z"/>
	<path class="st0" d="M264.4,1.2v6.7h-4V1.2H264.4z M264.4,20.3v36.8h-4V20.3H264.4z"/>
	<path class="st0" d="M292.3,19.6c5.3,0,9.8,1.8,13.3,5.5s5.3,8.2,5.3,13.7c0,5.4-1.8,10-5.3,13.6c-3.6,3.6-8,5.5-13.3,5.5
		s-9.8-1.8-13.4-5.5c-3.6-3.6-5.4-8.2-5.4-13.6c0-5.5,1.8-10,5.4-13.7C282.5,21.4,287,19.6,292.3,19.6z M292.3,53.9
		c4.1,0,7.6-1.4,10.4-4.3c2.8-2.9,4.2-6.5,4.2-10.9c0-4.3-1.4-8-4.2-10.9c-2.8-2.9-6.2-4.4-10.3-4.4c-4.2,0-7.6,1.5-10.4,4.4
		s-4.2,6.6-4.2,11c0,4.4,1.4,8,4.2,10.9C284.7,52.5,288.1,53.9,292.3,53.9z"/>
</g>
<g>
	<polygon class="st1" points="350.6,42.2 328.8,42.2 328.8,37.4 345.7,37.4 345.7,22.1 328.8,22.1 328.8,17.2 350.6,17.2 	"/>
</g>
<g>
	<polygon class="st1" points="367.7,59.5 328.1,59.5 328.1,54.6 362.8,54.6 362.9,18.5 355.5,18.5 355.5,13.7 367.8,13.7 	"/>
</g>
<g>
	<polygon class="st1" points="358,16.1 353.1,16.1 353.1,4.9 330.8,4.9 330.8,0 358,0 	"/>
</g>
<g>
	<polygon class="st2" points="358,32.2 348.4,32.2 348.4,27.3 353.1,27.3 353.1,16.1 358,16.1 	"/>
</g>
<g>
	<polygon class="st1" points="44.1,25.5 23,25.5 23,0.8 44.1,0.8 44.1,5.6 27.9,5.6 27.9,20.7 44.1,20.7 	"/>
</g>
<g>
	<polygon class="st1" points="47,59.1 3.7,59.1 3.5,24.2 15.6,24.2 15.6,29.1 8.4,29.1 8.5,54.3 47,54.3 	"/>
</g>
<g>
	<polygon class="st1" points="39.5,42.6 13.2,42.6 13.2,26.7 18.1,26.7 18.1,37.7 39.5,37.7 	"/>
</g>
<g>
	<polygon class="st2" points="18.1,26.7 13.2,26.7 13.2,10.7 25.5,10.7 25.5,15.6 18.1,15.6 	"/>
</g>
<g>
	<rect y="39.3" class="st1" width="6" height="4.9"/>
</g>
<g>
	<rect x="365.4" y="34.1" class="st1" width="6" height="4.9"/>
</g>
</svg>
