<svg width="120" height="75.8" xmlns="http://www.w3.org/2000/svg" xml:space="preserve" version="1.1">

 <g>
  <title>Layer 1</title>
  <g stroke="null" id="svg_10">
   <polygon stroke="null" id="svg_11" fill="#e5e5e5" points="95.90286312997341,48.24201965332031 74.10284481942654,48.24201965332031 74.10284481942654,43.89377212524414 91.00286923348904,43.89377212524414 91.00286923348904,30.033756256103516 74.10284481942654,30.033756256103516 74.10284481942654,25.594926834106445 95.90286312997341,25.594926834106445 " class="st1"/>
  </g>
  <g stroke="null" id="svg_12">
   <polygon stroke="null" id="svg_13" fill="#e5e5e5" points="113.00299130380154,64.36554718017578 73.40286312997341,64.36554718017578 73.40286312997341,59.5914192199707 108.10296688973904,59.5914192199707 108.20297299325466,24.418718338012695 100.80285702645779,24.418718338012695 100.80285702645779,19.742013931274414 113.10296688973904,19.742013931274414 " class="st1"/>
  </g>
  <g id="svg_14">
   <polygon id="svg_15" fill="#56aaff" points="103.30287228524685,22.14201545715332 98.40286312997341,22.14201545715332 98.40286312997341,10.942009925842285 76.10284481942654,10.942009925842285 76.10284481942654,6.04201078414917 103.30287228524685,6.04201078414917 " class="st1"/>
  </g>
  <g id="svg_16">
   <polygon id="svg_17" fill="#e5e5e5" points="103.30287228524685,38.24201965332031 93.70285092294216,38.24201965332031 93.70285092294216,33.34201431274414 98.40286312997341,33.34201431274414 98.40286312997341,22.14201545715332 103.30287228524685,22.14201545715332 " class="st2"/>
  </g>
  <g id="svg_18">
   <polygon id="svg_19" fill="#e5e5e5" points="47.46138821542263,30.718467712402344 26.361389741301537,30.718467712402344 26.361389741301537,6.018465995788574 47.46138821542263,6.018465995788574 47.46138821542263,10.81846809387207 31.261387452483177,10.81846809387207 31.261387452483177,25.918468475341797 47.46138821542263,25.918468475341797 " class="st1"/>
  </g>
  <g id="svg_20">
   <polygon id="svg_21" fill="#e5e5e5" points="50.36138974130154,64.31846618652344 7.061372861266136,64.31846618652344 6.861373528838158,29.418468475341797 18.961390122771263,29.418468475341797 18.961390122771263,34.31846618652344 11.761366471648216,34.31846618652344 11.861366853117943,59.51846694946289 50.36138974130154,59.51846694946289 " class="st1"/>
  </g>
  <g id="svg_22">
   <polygon id="svg_23" fill="#007fff" points="42.86138974130154,47.81846618652344 16.56138287484646,47.81846618652344 16.56138287484646,31.918468475341797 21.461390122771263,31.918468475341797 21.461390122771263,42.9184684753418 42.86138974130154,42.9184684753418 " class="st1"/>
  </g>
  <g id="svg_24">
   <polygon id="svg_25" fill="#e5e5e5" points="21.461390122771263,31.918468475341797 16.56138287484646,31.918468475341797 16.56138287484646,15.918464660644531 28.861389741301537,15.918464660644531 28.861389741301537,20.81846809387207 21.461390122771263,20.81846809387207 " class="st2"/>
  </g>
  <g id="svg_26">
   <rect x="3.36137" id="svg_27" fill="#e5e5e5" height="4.9" width="6" class="st1" y="44.51847"/>
  </g>
  <g id="svg_28">
   <rect id="svg_29" fill="#e5e5e5" height="4.9" width="6" class="st1" y="40.14201" x="110.70285"/>
  </g>
  <line stroke="#ffffff" stroke-dasharray="2,2" stroke-linecap="undefined" stroke-linejoin="undefined" id="svg_30" y2="8.11846" x2="73.68795" y1="8.11846" x1="50.14709" fill="none"/>
  <line stroke-linecap="undefined" stroke-linejoin="undefined" id="svg_31" y2="79.68571" x2="222.14286" y1="80.04286" x1="222.14286" stroke="#000" fill="none"/>
  <line stroke="#ffffff" stroke-dasharray="2,2" stroke-linecap="undefined" stroke-linejoin="undefined" id="svg_32" y2="28.11821" x2="71.33504" y1="28.11821" x1="49.9118" fill="none"/>
  <line stroke="#ffffff" stroke-dasharray="2,2" stroke-linecap="undefined" stroke-linejoin="undefined" id="svg_33" y2="45.05917" x2="71.80562" y1="45.05917" x1="46.14714" fill="none"/>
  <line stroke="#ffffff" stroke-dasharray="2,2" stroke-linecap="undefined" stroke-linejoin="undefined" id="svg_34" y2="61.76484" x2="72.04091" y1="61.76484" x1="53.20587" fill="none"/>
 </g>
</svg>